<svg width="26" height="24" viewBox="0 0 26 24" fill="none" xmlns="http://www.w3.org/2000/svg">
<path fill-rule="evenodd" clip-rule="evenodd" d="M12.9708 0C6.17649 0 0.666992 5.50847 0.666992 12.3038C0.666992 17.74 4.19241 22.352 9.08109 23.9788C9.69599 24.0927 9.92174 23.712 9.92174 23.387C9.92174 23.0935 9.91034 22.1243 9.90504 21.0963C6.48211 21.8405 5.75983 19.6445 5.75983 19.6445C5.20014 18.2225 4.39371 17.8443 4.39371 17.8443C3.27739 17.0807 4.47786 17.0963 4.47786 17.0963C5.71338 17.1828 6.36392 18.3645 6.36392 18.3645C7.46131 20.2452 9.24226 19.7013 9.94436 19.387C10.0548 18.5918 10.3736 18.0488 10.7255 17.7418C7.99268 17.4307 5.11986 16.3757 5.11986 11.6612C5.11986 10.3179 5.60049 9.22032 6.38756 8.35868C6.25982 8.04858 5.83868 6.79737 6.50676 5.10262C6.50676 5.10262 7.53996 4.77193 9.89118 6.3638C10.8726 6.09118 11.9252 5.95447 12.9708 5.94978C14.0164 5.95447 15.0698 6.09118 16.0531 6.3638C18.4015 4.77193 19.4332 5.10262 19.4332 5.10262C20.103 6.79737 19.6817 8.04858 19.5538 8.35868C20.3427 9.22032 20.8202 10.3179 20.8202 11.6612C20.8202 16.3869 17.9418 17.4273 15.202 17.732C15.6433 18.1138 16.0366 18.8627 16.0366 20.0105C16.0366 21.6568 16.0223 22.9817 16.0223 23.387C16.0223 23.7143 16.2438 24.098 16.8674 23.9772C21.7535 22.3485 25.2743 17.7382 25.2743 12.3038C25.2743 5.50847 19.7657 0 12.9708 0Z" fill="#1B1817"/>
<path d="M5.32659 17.6655C5.29949 17.7268 5.20332 17.745 5.11571 17.703C5.02647 17.663 4.97634 17.5797 5.00527 17.5183C5.03176 17.4555 5.12814 17.438 5.21717 17.4798C5.30662 17.5202 5.35756 17.6043 5.32659 17.6655Z" fill="#1B1817"/>
<path d="M5.82543 18.2213C5.76676 18.2758 5.65204 18.2505 5.57421 18.1645C5.49374 18.0788 5.47866 17.964 5.53816 17.9088C5.59866 17.8547 5.70991 17.8802 5.79059 17.9657C5.87108 18.0525 5.88676 18.1663 5.82543 18.2213Z" fill="#1B1817"/>
<path d="M6.31068 18.93C6.2353 18.9823 6.11203 18.9333 6.03583 18.8238C5.96043 18.7145 5.96045 18.5832 6.03747 18.5307C6.11387 18.4782 6.2353 18.5255 6.31252 18.634C6.3877 18.7452 6.3877 18.8765 6.31068 18.93Z" fill="#1B1817"/>
<path d="M6.97487 19.6147C6.90744 19.689 6.76379 19.669 6.65865 19.5675C6.55109 19.4683 6.52114 19.3275 6.58877 19.2532C6.65702 19.1787 6.80149 19.1997 6.90744 19.3002C7.01419 19.3993 7.04679 19.541 6.97487 19.6147Z" fill="#1B1817"/>
<path d="M7.89162 20.0122C7.86187 20.1085 7.72352 20.1523 7.58416 20.1113C7.44501 20.0692 7.35392 19.9563 7.38206 19.8588C7.41097 19.7618 7.54994 19.7163 7.69031 19.76C7.82927 19.802 7.92056 19.9142 7.89162 20.0122Z" fill="#1B1817"/>
<path d="M8.89883 20.0858C8.9023 20.1873 8.78412 20.2715 8.63783 20.2733C8.49073 20.2765 8.37173 20.1945 8.37012 20.0947C8.37012 19.9922 8.48563 19.9088 8.63273 19.9063C8.77903 19.9035 8.89883 19.985 8.89883 20.0858Z" fill="#1B1817"/>
<path d="M9.8361 19.9263C9.85362 20.0253 9.75195 20.127 9.60669 20.1542C9.46385 20.1802 9.33164 20.1192 9.3135 20.0208C9.29577 19.9193 9.39927 19.8177 9.5419 19.7915C9.68737 19.7662 9.81757 19.8257 9.8361 19.9263Z" fill="#1B1817"/>
</svg>
