<svg width="25" height="25" viewBox="0 0 25 25" fill="none" xmlns="http://www.w3.org/2000/svg">
<mask id="mask0_431_11" style="mask-type:luminance" maskUnits="userSpaceOnUse" x="0" y="0" width="25" height="25">
<path d="M24.4047 0.857132H0.880859V24.8571H24.4047V0.857132Z" fill="white"/>
</mask>
<g mask="url(#mask0_431_11)">
<path d="M24.4049 13.1327C24.4049 12.317 24.3388 11.4969 24.1976 10.6944H12.8789V15.3153H19.3606C19.0916 16.8057 18.2274 18.1241 16.9619 18.9618V21.9601H20.8289C23.0998 19.8701 24.4049 16.7837 24.4049 13.1327Z" fill="#4285F4"/>
<path d="M12.8788 24.8571C16.1152 24.8571 18.8446 23.7945 20.8331 21.9601L16.9662 18.9618C15.8903 19.6938 14.5014 20.1083 12.8832 20.1083C9.75256 20.1083 7.09814 17.9961 6.14573 15.1566H2.15527V18.2475C4.19239 22.2998 8.34158 24.8571 12.8788 24.8571Z" fill="#34A853"/>
<path d="M6.14144 15.1566C5.63878 13.6662 5.63878 12.0524 6.14144 10.5621V7.47113H2.15541C0.453405 10.8619 0.453405 14.8568 2.15541 18.2475L6.14144 15.1566Z" fill="#FBBC04"/>
<path d="M12.8788 5.60598C14.5896 5.57953 16.2431 6.22328 17.4821 7.405L20.9081 3.97893C18.7388 1.94183 15.8595 0.821857 12.8788 0.857132C8.34156 0.857132 4.19239 3.41455 2.15527 7.47113L6.14131 10.5621C7.08931 7.71805 9.74814 5.60598 12.8788 5.60598Z" fill="#EA4335"/>
</g>
</svg>
